<?xml version="1.0" encoding="utf-8"?>
<!-- Generator: Adobe Illustrator 16.0.0, SVG Export Plug-In . SVG Version: 6.00 Build 0)  -->
<!DOCTYPE svg PUBLIC "-//W3C//DTD SVG 1.1//EN" "http://www.w3.org/Graphics/SVG/1.1/DTD/svg11.dtd">
<svg version="1.1" id="圖層_1" xmlns="http://www.w3.org/2000/svg" xmlns:xlink="http://www.w3.org/1999/xlink" x="0px" y="0px"
	 width="60px" height="50px" viewBox="-5 0 60 50" enable-background="new -5 0 60 50" xml:space="preserve">
<g>
	<g>
		<path fill="#273C75" d="M16.091,50C9.786,50,4.655,44.871,4.655,38.563l0.001-27.126c0-6.306,5.131-11.436,11.436-11.436
			c1.321,0,2.392,1.07,2.392,2.392c0,1.321-1.071,2.393-2.392,2.393c-3.667,0-6.652,2.983-6.652,6.65l0,27.126
			c0,3.668,2.984,6.651,6.651,6.651c1.321,0,2.393,1.071,2.393,2.393C18.484,48.93,17.412,50,16.091,50z"/>
	</g>
	<g>
		<path fill="#273C75" d="M33.911,50c-6.305,0-11.437-5.131-11.437-11.437l0.002-27.126c0-6.307,5.131-11.437,11.436-11.437
			c1.321,0,2.393,1.071,2.393,2.393s-1.071,2.393-2.393,2.393c-3.666,0-6.65,2.983-6.65,6.651l-0.003,27.126
			c0,3.667,2.985,6.651,6.652,6.651c1.32,0,2.392,1.071,2.392,2.393C36.303,48.928,35.231,50,33.911,50z"/>
	</g>
	<g>
		<path fill="#273C75" d="M51.997,50c-6.306,0-11.436-5.131-11.436-11.437l0.001-18.083c0-1.323,1.071-2.393,2.393-2.393l0,0
			c1.32,0,2.392,1.071,2.392,2.393l-0.001,18.083c0,3.667,2.984,6.651,6.651,6.651c1.32,0,2.392,1.071,2.392,2.393
			C54.389,48.928,53.317,50,51.997,50z"/>
	</g>
	<g>
		<path fill="#273C75" d="M42.953,13.829c-1.321,0-2.392-1.071-2.392-2.392C40.562,5.13,45.691,0,51.997,0
			c1.32,0,2.392,1.071,2.392,2.393c0,1.322-1.071,2.392-2.392,2.392c-3.667,0-6.651,2.984-6.651,6.652
			C45.346,12.758,44.273,13.829,42.953,13.829z"/>
	</g>
	<circle fill="#273C75" cx="-1.996" cy="47.607" r="2.393"/>
</g>
</svg>
