<?xml version="1.0" encoding="utf-8"?>
<!-- Generator: Adobe Illustrator 22.0.1, SVG Export Plug-In . SVG Version: 6.00 Build 0)  -->
<svg version="1.1" id="圖層_1" xmlns="http://www.w3.org/2000/svg" xmlns:xlink="http://www.w3.org/1999/xlink" x="0px" y="0px"
	 viewBox="0 0 52 52" style="enable-background:new 0 0 52 52;" xml:space="preserve">
<style type="text/css">
	.st0{fill:#4B6584;}
</style>
<g>
	<polygon class="st0" points="16.2,42.3 13.1,50.7 33.4,50.7 30.3,42.3 	"/>
	<path class="st0" d="M26.5,17l12.9,33.7h3.7V26.3h5.4v24.4H49c0.9,0,1.7-0.8,1.7-1.7V3c0-0.9-0.8-1.7-1.7-1.7H3
		C2.1,1.3,1.3,2.1,1.3,3v45.8c0,0.9,0.8,1.7,1.7,1.7h4.2l12.9-33.7h6.4V17z M43.2,17.3c0.8-0.6,1.6-0.9,2.6-0.9
		c1.1,0,1.9,0.3,2.6,0.9c0.6,0.6,1.1,1.6,1.1,2.5s-0.3,1.9-1.1,2.6c-0.8,0.6-1.6,0.9-2.6,0.9c-1.1,0-1.9-0.3-2.6-0.9
		c-0.8-0.8-1.1-1.6-1.1-2.6S42.4,17.9,43.2,17.3z"/>
	<polygon class="st0" points="23.4,22.9 23.2,22.9 17.9,37.6 28.8,37.6 	"/>
</g>
</svg>
