<?xml version="1.0" encoding="utf-8"?>
<!-- Generator: Adobe Illustrator 22.0.1, SVG Export Plug-In . SVG Version: 6.00 Build 0)  -->
<svg version="1.1" id="圖層_1" xmlns="http://www.w3.org/2000/svg" xmlns:xlink="http://www.w3.org/1999/xlink" x="0px" y="0px"
	 viewBox="0 0 52 52" width="85" style="enable-background:new 0 0 52 52;" xml:space="preserve">
<style type="text/css">
	.st0{fill:#4B6584;}
</style>
<g>
	<path class="st0" d="M1.7,51.4c-0.1-0.1-0.1-0.1-0.1-0.2c0.1-0.5,0.2-1,0.4-1.6c0.1-0.4,0.4-0.3,0.7-0.3c0.4,0,0.7-0.1,0.9-0.5
		c0.4-0.8,0.6-1.6,0.8-2.5C4.5,45.2,4.6,44.1,5,43c0.2-0.5,0.2-0.5,0.7-0.5c0.5,0,1,0,1.4,0c0.3,0,0.3,0.1,0.3,0.3
		c-0.1,0.4-0.1,0.8-0.3,1.1c-0.2,0.5-0.2,1-0.4,1.6c-0.3,1.1-0.5,2.3-0.8,3.4c-0.1,0.5-0.3,1-0.5,1.4c-0.3,0.6-0.8,0.8-1.3,1
		c-0.1,0-0.2,0-0.2,0.1C3.1,51.4,2.4,51.4,1.7,51.4z"/>
	<path class="st0" d="M27.4,33.4c-1.5,0-2.9-0.2-4.3-0.6c-2-0.5-3.9-1.4-5.6-2.5c-1.5-1-2.8-2.1-3.9-3.4c-1-1.1-1.9-2.4-2.7-3.8
		c-0.7-1.4-1.3-2.8-1.7-4.3C8.9,18,8.7,17,8.7,16.1c0-0.3,0-0.5-0.1-0.8c0-0.3,0-0.6,0-1c0.1-2.9,1-5.5,2.9-7.8
		c0.2-0.3,0.5-0.5,0.7-0.8c0.1-0.1,0.1-0.2,0.2-0.1c0.1,0.1,0,0.2,0,0.3c-0.3,1.2-0.4,2.5-0.5,3.8c0,0.1,0,0.2,0,0.4
		c0,0.2,0,0.4,0,0.6c0,0.1,0,0.3,0,0.4c0.1,0.2,0,0.4,0,0.6c0,0.1,0,0.2,0,0.4c0.1,0.9,0.2,1.7,0.3,2.5c0.5,2.6,1.7,4.9,3.4,7
		c1.6,1.9,3.5,3.4,5.6,4.8c1.8,1.1,3.7,2,5.7,2.5c1.2,0.3,2.5,0.5,3.7,0.5c0.3,0,0.7,0,1,0c1.5,0,3-0.2,4.4-0.7c2-0.6,3.9-1.5,5.5-3
		c0.3-0.2,0.5-0.5,0.9-0.8c-1.5,3.9-6.8,8.6-13.8,8.7C28.3,33.5,27.8,33.5,27.4,33.4z"/>
	<path class="st0" d="M43.4,16.1c-0.4,0.9-0.9,1.7-1.5,2.5c-0.8,1-1.7,1.7-2.8,2.3c-1.2,0.7-2.6,1.2-4,1.4c-0.5,0.1-1.1,0.2-1.6,0.2
		c-0.1,0-0.2,0-0.3,0c-0.4,0-0.8,0-1.2,0c-0.1,0-0.2,0-0.4,0c-1.4-0.1-2.9-0.4-4.2-1C26.2,21,25,20.3,24,19.4
		c-1.5-1.2-2.7-2.6-3.6-4.3c-0.8-1.4-1.3-3-1.4-4.6c0-0.2,0-0.4-0.1-0.6c0-0.1,0-0.3,0-0.4c0-0.2,0-0.3,0-0.5c0-0.2,0-0.3,0-0.5
		c0.1-2.1,1.4-5.2,2.6-6c-0.2,0.8-0.2,1.7-0.4,2.5c0,0.1,0,0.2,0,0.3c0,0.1,0,0.2,0,0.4c0,0.2,0,0.5,0,0.7c0,0.1,0,0.3,0,0.4
		c0.1,2.6,0.9,4.9,2.5,7c1.2,1.5,2.7,2.7,4.3,3.6c1.3,0.7,2.6,1.4,4.1,1.7c0.7,0.2,1.3,0.3,2,0.3c0.1,0,0.3,0,0.4,0
		c0.4,0,0.7,0,1.1,0c2.4-0.2,4.6-0.9,6.5-2.5c0.4-0.3,0.7-0.7,1.1-1.1C43.5,15.9,43.5,16,43.4,16.1z"/>
	<path class="st0" d="M21.7,48c-0.5,0-1,0-1.5-0.2c-0.4-0.1-0.7-0.4-0.9-0.8c-0.4-0.7-0.3-1.4-0.2-2.2c0.2-1.3,0.5-2.7,0.7-4
		c0.1-0.4,0.2-0.7,0.2-1.1c0,0,0-0.1,0.1-0.1c0.7,0,1.3-0.1,2,0c0.1,0.8-0.2,1.5-0.3,2.3c-0.1,0.7-0.3,1.3-0.4,2
		c-0.1,0.6-0.1,1.2,0.1,1.8c0.8,0,1.5,0,2.3,0c0.4-1.9,0.8-3.8,1.2-5.6c0.1-0.3,0.2-0.5,0.5-0.4c0.5,0,0.9,0,1.4,0
		c0.3,0,0.3,0.1,0.3,0.4c-0.2,1.1-0.5,2.3-0.7,3.4c-0.2,1.2-0.5,2.3-0.7,3.5c0,0.2-0.1,0.5-0.2,0.8c0,0.2-0.1,0.2-0.3,0.2
		c-0.4,0-0.8,0-1.2,0C23.3,48.1,22.5,48.1,21.7,48z"/>
	<path class="st0" d="M27.5,4.3c0-1.3,0.5-2.5,1.3-3.6c0.1-0.1,0.1-0.2,0.2-0.2c0.1,0.1,0,0.2,0,0.3c0,0.3,0,0.6-0.1,0.9
		c-0.1,0.1,0,0.3,0,0.4c0,0.1,0,0.2,0,0.3c0.1,0.1,0,0.3,0,0.4c0.1,1.9,0.8,3.5,2,4.8c1.4,1.5,3,2.6,5,3.1c0.5,0.1,1,0.2,1.5,0.2
		c0.3,0,0.5,0,0.8,0c0.6,0,1.2-0.2,1.8-0.3c0.6-0.1,1.1-0.4,1.8-0.7c-0.4,0.8-1,1.3-1.6,1.8c-0.9,0.7-1.9,1-3.1,1.1
		c-0.1,0-0.2,0-0.3,0.1c-0.4-0.1-0.7,0-1.1,0c-1.2-0.1-2.4-0.3-3.5-0.9c-1-0.5-1.9-1.1-2.6-2c-1-1.2-1.7-2.5-2.1-3.9
		c-0.1-0.4-0.1-0.7-0.1-1.1C27.5,4.7,27.5,4.5,27.5,4.3z"/>
	<path class="st0" d="M42,48c0.3-0.4,0.4-1,0.4-1.5c0-0.1,0-0.2,0-0.4c-0.1-1-0.5-2-0.7-2.9c-0.1-0.3-0.1-0.5-0.2-0.8
		c0.4-0.1,0.9,0,1.3,0c0.3,0,0.7,0,1,0c0.2,0.3,0.2,0.7,0.3,1c0,0.1,0,0.2,0.1,0.2c0.1,0,0.1-0.1,0.2-0.2c0.3-0.4,0.5-0.7,0.8-1.1
		c0.8-1.2,1.7-2.4,2.5-3.7c0.2-0.1,0.3,0,0.5,0c0.7,0,1.4-0.1,2.1,0c-0.2,0.5-0.5,0.9-0.8,1.4c-0.4,0.5-0.7,1-1.1,1.5
		c-0.4,0.5-0.8,0.9-1.1,1.4c-0.6,0.9-1.3,1.7-1.9,2.7c-0.4,0.7-0.8,1.5-1,2.4c-0.2,0.1-0.4,0-0.6,0C43.2,48,42.6,48.1,42,48z"/>
	<path class="st0" d="M41.3,41.9c-0.7,0-1.4,0-2.2,0c-0.3,0-0.4,0.1-0.4,0.3c-0.2,1.3-0.5,2.6-0.8,3.8c-0.1,0.6-0.3,1.2-0.4,1.7
		c0,0.2-0.1,0.2-0.2,0.2c-0.6,0-1.2,0-1.8,0c-0.3,0-0.1-0.2-0.1-0.3c0.1-0.5,0.2-1,0.3-1.5c0.4-2,0.8-3.9,1.2-5.9
		c0.1-0.3,0.1-0.4,0.4-0.4c0.8,0,1.7,0,2.5,0c0.8,0,1.6,0.1,2.4,0c0.7,0,1.2,0.6,1.3,1.3c0,0.2,0.2,0.5,0,0.7c-0.1,0.1-0.4,0-0.7,0
		C42.5,41.9,41.9,41.9,41.3,41.9z"/>
	<path class="st0" d="M8,39.9c0,0.2-0.1,0.5-0.1,0.7c-0.1,0.4-0.1,0.8-0.3,1.2c-0.1,0.1-0.2,0-0.3,0c-0.7,0-1.3,0.1-2,0
		c0.1-0.6,0.3-1.2,0.4-1.8c0,0,0,0,0,0C6.5,39.9,7.2,39.8,8,39.9z"/>
	<path class="st0" d="M17.7,46C17.6,46,17.6,46,17.7,46c-0.2-0.1-0.3,0-0.4-0.1c-0.2,0.1-0.2,0-0.2-0.2c0.2-0.6,0.4-1.1,0.6-1.7
		c0.3-1,0.7-1.9,0.6-3c0-0.3-0.1-0.6-0.2-0.9c-0.6-1.7-1.9-2.4-3.6-2.6c-0.3,0-0.5,0-0.8,0c-0.2,0-0.3,0-0.5,0.1
		c-1.2,0.2-2.2,0.7-3,1.6c-1.1,1.3-1.7,2.9-1.9,4.6c0,0.1,0,0.2,0,0.3c0,0.7,0,1.5,0.3,2.2c0.3,0.7,0.8,1.3,1.6,1.5
		c0.6,0.2,1.3,0.2,1.9,0.2c0.3,0.1,0.6,0,0.8,0c0.6,0,1.2,0,1.8,0c0.4,0,0.9,0,1.3,0c0.5,0,0.9,0,1.4,0c0.3,0,0.3-0.1,0.4-0.3
		c0.1-0.4,0.2-0.9,0.3-1.3C18.1,46,18.1,46,17.7,46z M15.4,43.8c-0.2,0.7-0.4,1.3-0.6,2c-0.1,0.2-0.1,0.3-0.3,0.3c-0.3,0-0.6,0-1,0
		c-0.4,0-0.9,0-1.4-0.1c-0.5-0.1-0.9-0.3-1.1-0.7c-0.1-0.2-0.1-0.3-0.1-0.5c0-1.2,0.3-2.3,0.7-3.4c0.3-0.7,0.8-1.2,1.5-1.4
		c0.6-0.2,1.2-0.2,1.7,0c0.6,0.2,1.1,0.9,1.1,1.5C15.8,42.2,15.5,43,15.4,43.8z"/>
	<path class="st0" d="M35.3,42c0-0.2-0.1-0.3-0.1-0.5c-0.1-0.6-0.4-1.1-1-1.4c-1-0.6-2.1-0.6-3.2-0.4c-1,0.2-1.9,0.7-2.5,1.5
		c-0.3,0.5-0.5,1-0.7,1.5c-0.3,1.1-0.7,2.3-0.5,3.5c0.1,0.7,0.4,1.2,1.1,1.5c0.5,0.2,0.9,0.2,1.4,0.3c0.1,0,0.2,0,0.3,0
		c0.2,0,0.3,0,0.5,0c0.4,0,0.8,0,1.2,0c0.3,0.1,0.6,0,0.8,0c0.3,0,0.6,0,0.9,0c0.1,0,0.1,0,0.2,0c0.3,0,0.5-0.1,0.5-0.4
		c0.1-0.4,0.1-0.9,0.3-1.3c0.1-0.1,0-0.2-0.1-0.2c-0.4,0-0.9,0-1.3,0c-0.5,0-1-0.1-1.5-0.1c-0.1-0.1-0.3,0-0.4-0.1
		c-0.2,0.1-0.5,0-0.7,0c-0.4,0-0.6-0.2-0.8-0.6c0-0.1,0-0.2,0-0.3c0-0.1,0-0.2,0.1-0.3c0.1-0.1,0.2,0,0.3,0c1.5,0,3,0,4.6,0
		c0.1,0,0.2,0,0.3,0c0.2-0.8,0.3-1.6,0.5-2.3C35.2,42.2,35.2,42.1,35.3,42z M32.9,42.8c0,0.1-0.1,0.1-0.3,0.1c-0.8,0-1.6,0-2.4,0
		c-0.3,0-0.3-0.1-0.2-0.4c0.4-0.7,0.9-1,1.8-0.9c0.5,0.1,0.9,0.2,1,0.8c0,0,0,0,0,0c0,0,0,0,0,0C32.9,42.6,32.9,42.7,32.9,42.8z"/>
</g>
</svg>
