<?xml version="1.0" encoding="utf-8"?>
<!-- Generator: Adobe Illustrator 22.0.1, SVG Export Plug-In . SVG Version: 6.00 Build 0)  -->
<svg version="1.1" id="圖層_1" xmlns="http://www.w3.org/2000/svg" xmlns:xlink="http://www.w3.org/1999/xlink" x="0px" y="0px"
	 viewBox="0 0 319.4 319.8" style="enable-background:new 0 0 319.4 319.8;" xml:space="preserve">
<style type="text/css">
	.st0{display:none;}
	.st1{display:inline;fill:none;stroke:#231815;stroke-miterlimit:10;}
	.st2{stroke:#000000;stroke-width:3;stroke-miterlimit:10;}
	.st3{stroke:#000000;stroke-width:5;stroke-miterlimit:10;}
	.st4{fill:#FFFFFF;}
	.st5{fill:#273C75;}
</style>
<g id="圖層_1_1_" class="st0">
	<rect y="-0.5" class="st1" width="320" height="320"/>
</g>
<g>
	<path class="st5" d="M238.1,20.2c-3.7-3.4-8.6-5.2-13.5-4.9L214,15.9v35.3c0,10,7.4,18.3,17.4,19.3l12.5,1.7V33.7
		C243.9,28.6,241.8,23.7,238.1,20.2z"/>
	<path class="st5" d="M235.3,101.9l-0.7,0.1c-9.5,2.2-16.2,10.7-16.2,20.6v97.7c0,21.2-3.6,40.4-10.8,56.9c-2.1,4.8-2,10.2,0.3,14.8
		c2.2,4.6,6.3,8,11.2,9.3l9,2.5l4.1-8.3c10.7-21.9,16.2-47.2,16.2-75.2V99.7L235.3,101.9z"/>
	<path class="st5" d="M119,264.2c-10,0-16.3-7.3-16.3-27.6V83.2c0-20.3,6.3-28,16.3-28c0,0,0.1,0,0.1,0c5.2,0,9.5-3.9,9.5-9V25.3
		c0-5.8-4.6-10.7-10.4-10.8c0,0-0.1,0-0.1,0c-30.9,0-46.9,26-46.9,71.4v147.8c0,45.5,16,71.4,46.9,71.4c0,0,0.1,0,0.1,0
		c5.8,0,10.4-5,10.4-10.8v-21.2c0-5.2-4.3-9.1-9.5-9.1C119,264.2,119,264.2,119,264.2z"/>
	<path class="st5" d="M186.8,264.2c-10,0-16.3-7.3-16.3-27.6V83.2c0-20.3,6.3-28,16.3-28c0,0,0.1,0,0.1,0c5.2,0,9.5-3.9,9.5-9V25.3
		c0-5.8-4.6-10.7-10.4-10.8c0,0-0.1,0-0.1,0c-30.9,0-46.9,26-46.9,71.4v147.8c0,45.5,16,71.4,46.9,71.4c0,0,0.1,0,0.1,0
		c5.8,0,10.4-5,10.4-10.8v-21.2c0-5.2-4.3-9.1-9.5-9.1C186.9,264.2,186.9,264.2,186.8,264.2z"/>
</g>
</svg>
