<?xml version="1.0" encoding="utf-8"?>
<!-- Generator: Adobe Illustrator 22.0.1, SVG Export Plug-In . SVG Version: 6.00 Build 0)  -->
<svg version="1.1" id="圖層_1" xmlns="http://www.w3.org/2000/svg" xmlns:xlink="http://www.w3.org/1999/xlink" x="0px" y="0px"
	 viewBox="0 0 319.39 319.776" enable-background="new 0 0 319.39 319.776" xml:space="preserve">
<g id="圖層_1_1_" display="none">
	<rect y="-0.5" display="inline" fill="none" stroke="#231815" stroke-miterlimit="10" width="320" height="320"/>
</g>
<path stroke="#000000" stroke-width="3" stroke-miterlimit="10" d="M257.047,116.525c-3.06,0-5.881-1.709-7.242-4.451
	c-4.701-9.473-10.909-18.004-18.032-25.39c-17.967-18.575-42.938-29.844-70.342-29.844c-27.406,0-52.377,11.268-70.344,29.844
	s-29.234,43.849-29.234,71.562c0,28.014,11.267,53.288,29.234,71.559c17.967,18.575,42.938,30.148,70.344,30.148
	c27.405,0,52.376-11.573,70.342-30.148c8.222-8.525,15.225-18.271,20.098-29.537l0,0c2.485,0,4.09,2.595,3.021,4.838
	c-5.039,10.563-11.829,20.149-19.769,28.352c-18.881,19.489-44.763,31.366-73.692,31.366s-54.813-11.877-73.693-31.366
	c-18.575-19.185-30.451-45.676-30.451-75.212c0-29.235,11.876-55.727,30.451-74.911c18.88-19.489,44.764-31.366,73.693-31.366
	s54.812,11.877,73.691,31.366C244.257,92.773,251.871,104.041,257.047,116.525L257.047,116.525z"/>
<path stroke="#000000" stroke-width="5" stroke-miterlimit="10" d="M234.008,190.61c-3.982,9.604-9.84,18.273-16.868,25.534
	c-14.525,14.993-34.438,24.131-56.694,24.131s-42.17-9.138-56.695-24.131c-14.291-14.76-23.427-35.141-23.427-57.632
	c0-22.724,9.136-43.104,23.427-57.864c14.525-14.993,34.439-24.131,56.695-24.131s42.169,9.138,56.694,24.131
	c6.108,6.311,11.332,13.686,15.209,21.813c0.823,1.726-0.412,3.722-2.324,3.722l0,0c-3.749-8.667-9.136-16.165-15.462-22.724
	c-13.822-14.291-33.033-23.194-54.117-23.194c-21.085,0-40.296,8.903-54.118,23.194c-13.822,14.057-22.491,33.501-22.491,55.053
	c0,21.32,8.668,40.764,22.491,55.055c13.822,14.291,33.034,22.96,54.118,22.96c21.083,0,40.294-8.67,54.117-22.96
	c5.48-5.683,10.257-12.246,13.873-19.534C229.483,191.925,231.654,190.61,234.008,190.61L234.008,190.61z"/>
<path stroke="#000000" stroke-width="5" stroke-miterlimit="10" d="M259.423,128.504v5.563c0,0.967,0.738,1.775,1.701,1.862
	l0.017,0.002v-5.8c0-0.928-0.775-1.685-1.701-1.628L259.423,128.504z"/>
<path stroke="#000000" stroke-width="5" stroke-miterlimit="10" d="M258.723,187.841c2.169-4.415,3.381-9.661,3.381-15.792v-24.127
	c-0.006,0.001-0.012,0.003-0.017,0.004c-1.006,0.232-1.701,1.154-1.701,2.186v21.937c0,5.278-0.934,9.855-2.633,13.771
	c-0.357,0.823,0.086,1.785,0.953,2.016L258.723,187.841z"/>
</svg>
