<?xml version="1.0" encoding="utf-8"?>
<!-- Generator: Adobe Illustrator 22.0.1, SVG Export Plug-In . SVG Version: 6.00 Build 0)  -->
<svg version="1.1" id="圖層_1" xmlns="http://www.w3.org/2000/svg" xmlns:xlink="http://www.w3.org/1999/xlink" x="0px" y="0px"
	 viewBox="0 0 319.4 319.8" style="enable-background:new 0 0 319.4 319.8;" xml:space="preserve">
<style type="text/css">
	.st0{display:none;}
	.st1{display:inline;fill:none;stroke:#231815;stroke-miterlimit:10;}
	.st2{stroke:#000000;stroke-width:3;stroke-miterlimit:10;}
	.st3{stroke:#000000;stroke-width:5;stroke-miterlimit:10;}
	.st4{fill:#FFFFFF;}
	.st5{fill:#273C75;}
</style>
<g id="圖層_1_1_" class="st0">
	<rect y="-0.5" class="st1" width="320" height="320"/>
</g>
<g>
	<g>
		<path class="st5" d="M251.1,20.2c3.7-3.4,8.6-5.2,13.5-4.9l10.6,0.6v35.3c0,10-7.4,18.3-17.4,19.3l-12.5,1.7V33.7
			C245.2,28.6,247.4,23.7,251.1,20.2z"/>
		<path class="st5" d="M253.9,101.9l0.7,0.1c9.5,2.2,16.2,10.7,16.2,20.6v97.7c0,21.2,3.6,40.4,10.8,56.9c2.1,4.8,2,10.2-0.3,14.8
			c-2.2,4.6-6.3,8-11.2,9.3l-9,2.5l-4.1-8.3c-10.7-21.9-16.2-47.2-16.2-75.2V99.7L253.9,101.9z"/>
	</g>
	<path class="st5" d="M133.9,264.2c-10,0-16.3-7.3-16.3-27.6V83.2c0-20.3,6.3-28,16.3-28c0,0,0.1,0,0.1,0c5.2,0,9.5-3.9,9.5-9V25.3
		c0-5.8-4.6-10.7-10.4-10.8c0,0-0.1,0-0.1,0c-30.9,0-46.9,26-46.9,71.4v147.8c0,45.5,16,71.4,46.9,71.4c0,0,0.1,0,0.1,0
		c5.8,0,10.4-5,10.4-10.8v-21.2c0-5.2-4.3-9.1-9.5-9.1C134,264.2,134,264.2,133.9,264.2z"/>
	<path class="st5" d="M211.3,264.2c-10,0-16.3-7.3-16.3-27.6V83.2c0-20.3,6.3-28,16.3-28c0,0,0.1,0,0.1,0c5.2,0,9.5-3.9,9.5-9V25.3
		c0-5.8-4.6-10.7-10.4-10.8c0,0-0.1,0-0.1,0c-30.9,0-46.9,26-46.9,71.4v147.8c0,45.5,16,71.4,46.9,71.4c0,0,0.1,0,0.1,0
		c5.8,0,10.4-5,10.4-10.8v-21.2c0-5.2-4.3-9.1-9.5-9.1C211.4,264.2,211.4,264.2,211.3,264.2z"/>
	<path class="st5" d="M42.1,253.2c3.7-3.4,8.6-5.2,13.5-4.9h0c5.9,0.3,10.6,5.3,10.6,11.2v24.7c0,10-7.4,18.3-17.4,19.3h0
		c-6.6,0.9-12.5-4.2-12.5-10.9v-26C36.3,261.6,38.4,256.7,42.1,253.2z"/>
</g>
</svg>
