<?xml version="1.0" encoding="utf-8"?>
<!-- Generator: Adobe Illustrator 22.0.1, SVG Export Plug-In . SVG Version: 6.00 Build 0)  -->
<svg version="1.1" id="圖層_1" xmlns="http://www.w3.org/2000/svg" xmlns:xlink="http://www.w3.org/1999/xlink" x="0px" y="0px"
	 viewBox="0 0 52 52" style="enable-background:new 0 0 52 52;" xml:space="preserve">
<style type="text/css">
	.st0{fill:#4B6584;}
</style>
<g>
	<path class="st0" d="M22.3,34.4c0.9-0.8,1.4-2,1.4-3.7c0-1.7-0.5-3-1.6-3.7c-0.9-0.8-2.5-1.1-4.5-1.1h-6.9v9.8h6.9
		C19.8,35.5,21.3,35.2,22.3,34.4z"/>
	<path class="st0" d="M49.3,1.2H3.1c-0.9,0-1.7,0.8-1.7,1.7V49c0,0.9,0.8,1.7,1.7,1.7h2.8V21.8h12c7,0,10.6,3,10.6,8.9
		s-3.6,9.1-10.6,9.1h-7.2v11.1h29.7c-5.9,0-9.1-2.5-9.5-7.3h4.7c0.3,1.4,0.8,2.3,1.4,2.8c0.6,0.5,1.7,0.8,3.3,0.8
		c3.3,0,4.8-0.9,4.8-2.7c0-0.9-0.6-1.7-1.9-2.3c-0.6-0.3-2-0.6-4.2-1.2c-2.5-0.6-4.2-1.2-5.3-1.9c-1.6-1.1-2.5-2.5-2.5-4.2
		c0-2,0.8-3.4,2.3-4.5c1.6-1.1,3.6-1.7,6.2-1.7c5.5,0,8.6,2.2,9.1,6.7h-4.5c-0.3-1.1-0.8-1.9-1.4-2.2c-0.6-0.5-1.7-0.6-3.1-0.6
		c-1.2,0-2.2,0.2-2.8,0.5c-0.8,0.3-1.1,0.9-1.1,1.7c0,0.6,0.5,1.2,1.7,1.7c0.6,0.3,2,0.6,4.2,1.2c2.3,0.6,4.2,1.2,5.3,2
		c1.7,1.1,2.5,2.5,2.5,4.4c0,4.5-3.1,6.7-9.5,6.7h8.7c0.9,0,1.7-0.8,1.7-1.7V2.9C51,1.9,50.2,1.2,49.3,1.2z"/>
</g>
</svg>
